<svg viewBox="0 0 64 64" xmlns="http://www.w3.org/2000/svg"><circle cx="26" cy="52" r="2" fill="none" stroke="#b3e3e6" stroke-linecap="round" stroke-linejoin="round" stroke-width="2px" class="stroke-000000"></circle><circle cx="46.74" cy="3.99" r="1.07" fill="#b3e3e6" class="fill-000000"></circle><circle cx="52" cy="26" r="1" fill="#b3e3e6" class="fill-000000"></circle><path d="m51.59 13.59 2.82 2.82M54.41 13.59l-2.82 2.82M46.14 49.14l-7.7-7.7M41.46 38.46l7.67 7.67" fill="none" stroke="#b3e3e6" stroke-linecap="round" stroke-linejoin="round" stroke-width="2px" class="stroke-000000"></path><path d="M50.2 45.24h7.07V58.7a3.54 3.54 0 0 1-3.54 3.54h0a3.54 3.54 0 0 1-3.53-3.54V45.24h0Z" transform="rotate(-45 53.74 53.74)" fill="none" stroke="#b3e3e6" stroke-linecap="round" stroke-linejoin="round" stroke-width="2px" class="stroke-000000"></path><circle cx="25.81" cy="25.81" r="20" fill="none" stroke="#b3e3e6" stroke-linecap="round" stroke-linejoin="round" stroke-width="2px" class="stroke-000000"></circle><circle cx="25.81" cy="25.81" r="16" fill="none" stroke="#b3e3e6" stroke-linecap="round" stroke-linejoin="round" stroke-width="2px" class="stroke-000000"></circle><path d="m50 51-1.5 1.5M52 53l-1.5 1.5M54 55l-1.5 1.5M56 57l-1.5 1.5M24.4 35.23 16 26h5l2.6 2.77L29.23 18H34l-9.6 17.23z" fill="none" stroke="#b3e3e6" stroke-linecap="round" stroke-linejoin="round" stroke-width="2px" class="stroke-000000"></path></svg>